<svg width="500" height="500" viewBox="0 0 500 500" fill="none" xmlns="http://www.w3.org/2000/svg">
<g clip-path="url(#clip0_263_3533)">
<path d="M65.75 241V66H119.5C138 66 154.333 69.6667 168.5 77C182.833 84.3333 193.917 94.6667 201.75 108C209.75 121.167 213.75 136.333 213.75 153.5C213.75 170.667 209.75 185.917 201.75 199.25C193.917 212.417 182.833 222.667 168.5 230C154.333 237.333 138 241 119.5 241H65.75ZM119.5 220.5C133.667 220.5 146.083 217.75 156.75 212.25C167.417 206.583 175.667 198.75 181.5 188.75C187.5 178.583 190.5 166.833 190.5 153.5C190.5 140.167 187.5 128.5 181.5 118.5C175.667 108.333 167.417 100.5 156.75 95C146.083 89.3333 133.667 86.5 119.5 86.5H88.25V220.5H119.5Z" fill="black"/>
<path d="M65.75 434V259H119.5C138 259 154.333 262.667 168.5 270C182.833 277.333 193.917 287.667 201.75 301C209.75 314.167 213.75 329.333 213.75 346.5C213.75 363.667 209.75 378.917 201.75 392.25C193.917 405.417 182.833 415.667 168.5 423C154.333 430.333 138 434 119.5 434H65.75ZM119.5 413.5C133.667 413.5 146.083 410.75 156.75 405.25C167.417 399.583 175.667 391.75 181.5 381.75C187.5 371.583 190.5 359.833 190.5 346.5C190.5 333.167 187.5 321.5 181.5 311.5C175.667 301.333 167.417 293.5 156.75 288C146.083 282.333 133.667 279.5 119.5 279.5H88.25V413.5H119.5Z" fill="black"/>
<rect x="7.5" y="7.5" width="485" height="485" stroke="black" stroke-width="15"/>
<path d="M254.25 434L325.25 259H354.5L425.5 434H401.75L379.75 380H299.5L277.5 434H254.25ZM301.5 375.25H377.75L339.75 282.5L301.5 375.25Z" fill="black"/>
<line x1="292" y1="371" x2="389" y2="371" stroke="black" stroke-width="18"/>
<path d="M343.75 244.75C326.583 244.75 311.083 240.833 297.25 233C283.417 225 272.5 214.083 264.5 200.25C256.667 186.25 252.75 170.667 252.75 153.5C252.75 136.333 256.667 120.833 264.5 107C272.5 93 283.417 82.0833 297.25 74.25C311.083 66.25 326.583 62.25 343.75 62.25C360.917 62.25 376.417 66.25 390.25 74.25C404.083 82.0833 414.917 93 422.75 107C430.583 120.833 434.5 136.333 434.5 153.5C434.5 170.667 430.583 186.25 422.75 200.25C414.917 214.083 404.083 225 390.25 233C376.417 240.833 360.917 244.75 343.75 244.75ZM343.75 222.5C356.583 222.5 368.167 219.583 378.5 213.75C388.833 207.75 396.917 199.5 402.75 189C408.75 178.333 411.75 166.5 411.75 153.5C411.75 140.5 408.75 128.75 402.75 118.25C396.917 107.583 388.833 99.25 378.5 93.25C368.167 87.25 356.583 84.25 343.75 84.25C330.917 84.25 319.333 87.25 309 93.25C298.667 99.25 290.583 107.583 284.75 118.25C278.917 128.75 276 140.5 276 153.5C276 166.5 278.917 178.333 284.75 189C290.583 199.5 298.667 207.75 309 213.75C319.333 219.583 330.917 222.5 343.75 222.5Z" fill="#323D41"/>
</g>
<defs>
<clipPath id="clip0_263_3533">
<rect width="500" height="500" fill="white"/>
</clipPath>
</defs>
</svg>
